<?xml version="1.0" encoding="utf-8"?>
<!-- Generator: Adobe Illustrator 16.2.1, SVG Export Plug-In . SVG Version: 6.00 Build 0)  -->
<!DOCTYPE svg PUBLIC "-//W3C//DTD SVG 1.1//EN" "http://www.w3.org/Graphics/SVG/1.1/DTD/svg11.dtd">
<svg version="1.1" id="Layer_1" xmlns="http://www.w3.org/2000/svg" xmlns:xlink="http://www.w3.org/1999/xlink" x="0px" y="0px"
	 width="690px" height="1018px" viewBox="0 0 690 1018" enable-background="new 0 0 690 1018" xml:space="preserve">
<path fill="#FFFFFF" stroke="#6B6B6B" stroke-miterlimit="10" d="M440.612,381.755h-1.291v18.023h1.291
	c0.545,0,0.988-0.442,0.988-0.987v-16.048C441.601,382.196,441.157,381.755,440.612,381.755z"/>
<path fill="#FFFFFF" stroke="#6B6B6B" stroke-miterlimit="10" d="M441.379,418.535h-2.14v12.675h2.14
	c0.546,0,0.988-0.428,0.988-0.956v-10.763C442.367,418.964,441.925,418.535,441.379,418.535z"/>
<path fill="#FFFFFF" stroke="#6B6B6B" stroke-miterlimit="10" d="M441.379,450.428h-2.14v12.675h2.14
	c0.546,0,0.988-0.428,0.988-0.957v-10.762C442.367,450.856,441.925,450.428,441.379,450.428z"/>
<path fill="#FFFFFF" stroke="#868684" stroke-miterlimit="10" d="M439.321,676.642V363.885c0-35.613-23.235-35.202-23.235-35.202
	s-96.778,0-128.439,0c-31.662,0-29.725,35.202-29.725,35.202v312.756c0.428,35.663,24.197,32.923,24.197,32.923s106.338,0,132.348,0
	C440.474,709.564,439.321,676.642,439.321,676.642z"/>
<circle fill="#414141" stroke="#6B6B6B" stroke-miterlimit="10" cx="286.619" cy="350.771" r="8.944"/>
<circle fill="#444140" stroke="#6B6B6B" stroke-miterlimit="10" cx="303.464" cy="350.497" r="1.262"/>
<path fill="#C5BCBD" stroke="#6B6B6B" stroke-miterlimit="10" d="M319.815,354.146c0,2.318-1.879,4.197-4.198,4.197l0,0
	c-2.318,0-4.198-1.879-4.198-4.197v-7.188c0-2.317,1.88-4.198,4.198-4.198l0,0c2.318,0,4.198,1.88,4.198,4.198V354.146z"/>
<path fill="#FFFFFF" stroke="#6B6B6B" stroke-miterlimit="10" d="M317.87,328.644c-0.057-1.262-1.09-2.27-2.366-2.27h-22.809
	c-1.276,0-2.31,1.008-2.367,2.27H317.87z"/>
<rect x="257.922" y="363.885" fill="#F2F2F2" stroke="#868684" stroke-miterlimit="10" width="181.399" height="312.756"/>
<circle fill="#4D4C4C" stroke="#6B6B6B" stroke-miterlimit="10" cx="286.619" cy="350.771" r="5.833"/>
<path fill="#FFFFFF" stroke="#D1D1D1" stroke-width="3" stroke-miterlimit="10" d="M7.234,66.521c0,0,1-58,51-58s580,0,580,0
	s46,4,46,54s0,894,0,894s3,56-60,56s-546,0-546,0s-71,6.891-71-72C7.234,855.521,7.234,66.521,7.234,66.521z"/>
<path fill="#FFFFFF" stroke="#D1D1D1" stroke-width="3" stroke-miterlimit="10" d="M519.565,7.513
	c-0.674-1.765-2.37-3.022-4.371-3.022h-36.787c-2.001,0-3.697,1.258-4.371,3.022H519.565z"/>
<circle fill="#989898" stroke="#FFFFFF" stroke-miterlimit="10" cx="345.795" cy="61.281" r="6.686"/>
<circle fill="#989898" stroke="#FFFFFF" stroke-miterlimit="10" cx="345.795" cy="61.471" r="2.586"/>
<circle fill="none" stroke="#FFFFFF" stroke-miterlimit="10" cx="325.615" cy="62.354" r="3.405"/>
<path fill="#414141" d="M651.359,907.334c0,3.313-2.687,6-6,6h-598c-3.313,0-6-2.687-6-6v-796c0-3.313,2.687-6,6-6h598
	c3.313,0,6,2.687,6,6V907.334z"/>
<circle fill="#D1D1D1" stroke="#FFFFFF" stroke-miterlimit="10" cx="345.907" cy="962.564" r="24.517"/>
<path fill="#E2E2E1" d="M345.905,938.952c-12.974,0-23.491,10.517-23.491,23.491c0,0.477,0.019,0.948,0.047,1.418
	c23.466,10.081,40.012,3.167,46.924-1.025c0.002-0.132,0.01-0.262,0.01-0.393C369.395,949.469,358.877,938.952,345.905,938.952z"/>
<path fill="#E5E5E4" stroke="#FFFFFF" stroke-miterlimit="10" d="M354.689,965.17c0,3.866-3.135,7-7,7h-3.562c-3.867,0-7-3.134-7-7
	v-5.212c0-3.866,3.133-7,7-7h3.562c3.865,0,7,3.134,7,7V965.17z"/>
</svg>
