<?xml version="1.0" encoding="utf-8"?>
<!-- Generator: Adobe Illustrator 16.2.1, SVG Export Plug-In . SVG Version: 6.00 Build 0)  -->
<!DOCTYPE svg PUBLIC "-//W3C//DTD SVG 1.1//EN" "http://www.w3.org/Graphics/SVG/1.1/DTD/svg11.dtd">
<svg version="1.1" id="Layer_1" xmlns="http://www.w3.org/2000/svg" xmlns:xlink="http://www.w3.org/1999/xlink" x="0px" y="0px"
	 width="194px" height="390px" viewBox="-3.5 0 194 390" enable-background="new -3.5 0 194 390" xml:space="preserve">
<path fill="#414141" stroke="#6B6B6B" stroke-miterlimit="10" d="M-1.487,21.865c0,0,0.221-11.526,14.577-13.577
	C26.663,6.349,71.027,2.648,92.87,2.75c10.29,0.048,69.946,2.153,80.93,5.108c9.358,2.518,13.479,6.201,13.479,17.2
	c0,11,0,343.47,0,343.47s1.419,10.645-19.87,13.483s-61.03,5.322-69.546,5.322s-76.997-3.193-84.093-5.322
	c-7.097-2.129-15.967-6.032-15.967-21.644C-2.198,344.755-1.487,21.865-1.487,21.865z"/>
<rect x="5.666" y="34.896" fill="#FFFFFF" stroke="#6B6B6B" stroke-miterlimit="10" width="174.443" height="309.295"/>
<polygon fill="none" stroke="#404040" stroke-miterlimit="10" points="174.845,72.104 174.845,72.104 10.685,72.104 10.685,72.104 
	10.685,52.702 10.685,52.702 174.845,52.702 174.845,52.702 "/>
<circle fill="#837E7C" stroke="#6B6B6B" stroke-miterlimit="10" cx="93.045" cy="22.14" r="4.816"/>
<circle fill="none" stroke="#6B6B6B" stroke-miterlimit="10" cx="28.834" cy="22.394" r="3.211"/>
<circle fill="none" stroke="#6B6B6B" stroke-miterlimit="10" cx="28.834" cy="22.394" r="1.859"/>
<rect x="187.236" y="52.025" fill="#414141" stroke="#6B6B6B" stroke-miterlimit="10" width="2.033" height="24.483"/>
<polygon fill="none" stroke="#404040" stroke-miterlimit="10" points="83.715,336.639 100.835,336.639 100.835,331.404 
	92.275,327.812 83.713,331.67 "/>
<rect x="134.832" y="330.706" fill="none" stroke="#404040" stroke-miterlimit="10" width="13.604" height="5.589"/>
<polyline fill="none" stroke="#404040" stroke-miterlimit="10" points="151.53,334.166 151.53,328.511 138.923,328.511 "/>
<path fill="none" stroke="#404040" stroke-miterlimit="10" d="M41.158,336.161h6.287c0,0,2.428-0.532,2.428-2.728
	s-1.83-2.661-2.761-2.661c-0.931,0-13.106,0-13.106,0"/>
<polyline fill="none" stroke="#404040" stroke-miterlimit="10" points="36.435,333.55 33.724,330.739 36.401,328.327 "/>
</svg>
