<?xml version="1.0" encoding="utf-8"?>
<!-- Generator: Adobe Illustrator 16.0.0, SVG Export Plug-In . SVG Version: 6.00 Build 0)  -->
<!DOCTYPE svg PUBLIC "-//W3C//DTD SVG 1.1//EN" "http://www.w3.org/Graphics/SVG/1.1/DTD/svg11.dtd">
<svg version="1.1" id="Layer_1" xmlns="http://www.w3.org/2000/svg" xmlns:xlink="http://www.w3.org/1999/xlink" x="0px" y="0px"
	 width="440px" height="440px" viewBox="0 0 440 440" enable-background="new 0 0 440 440" xml:space="preserve">
<path fill="#FFFFFF" d="M440,73.35C440,34.834,405.195,0,366.68,0H73.35C34.805,0,0,34.834,0,73.35v293.33
	C0,405.234,34.805,440,73.35,440H220V273.818h-53.77v-73.33H220v-28.613c0-49.253,37.012-93.643,82.5-93.643h59.297v73.34H302.5
	c-6.504,0-14.033,7.871-14.033,19.697v29.219h73.33v73.33h-73.33V440h78.213c38.516,0,73.32-34.766,73.32-73.32V73.35z"/>
</svg>
