<?xml version="1.0" encoding="utf-8"?>
<!-- Generator: Adobe Illustrator 16.0.0, SVG Export Plug-In . SVG Version: 6.00 Build 0)  -->
<!DOCTYPE svg PUBLIC "-//W3C//DTD SVG 1.1//EN" "http://www.w3.org/Graphics/SVG/1.1/DTD/svg11.dtd">
<svg version="1.1" id="Layer_1" xmlns="http://www.w3.org/2000/svg" xmlns:xlink="http://www.w3.org/1999/xlink" x="0px" y="0px"
	 width="440px" height="440px" viewBox="0 0 440 440" enable-background="new 0 0 440 440" xml:space="preserve">
<path fill="#FFFFFF" d="M220,0C98.506,0,0,98.506,0,220c0,90.091,54.176,167.471,131.699,201.487
	c-0.627-15.343-0.125-33.802,3.813-50.506c4.243-17.85,28.306-119.865,28.306-119.865s-7.019-14.054-7.019-34.822
	c0-32.594,18.889-56.952,42.432-56.952c20.017,0,29.667,15.03,29.667,33.032c0,20.115-12.819,50.202-19.426,78.078
	c-5.515,23.347,11.709,42.36,34.732,42.36c41.68,0,69.753-53.532,69.753-116.965c0-48.214-32.478-84.299-91.541-84.299
	c-66.727,0-108.317,49.763-108.317,105.354c0,19.175,5.658,32.692,14.502,43.148c4.082,4.815,4.637,6.749,3.169,12.264
	c-1.056,4.046-3.473,13.786-4.476,17.653c-1.468,5.586-5.98,7.555-11.029,5.514c-30.723-12.55-45.045-46.209-45.045-84.058
	c0-62.492,52.708-137.419,157.229-137.419c84.004,0,139.272,60.773,139.272,126.015c0,86.296-47.981,150.784-118.701,150.784
	c-23.758,0-46.084-12.854-53.747-27.428c0,0-12.765,50.703-15.469,60.479c-4.673,16.973-13.804,33.909-22.147,47.122
	C177.443,436.831,198.336,440,220,440c121.494,0,220-98.488,220-220C440,98.506,341.494,0,220,0z"/>
</svg>
