<?xml version="1.0" encoding="utf-8"?>
<!-- Generator: Adobe Illustrator 16.0.0, SVG Export Plug-In . SVG Version: 6.00 Build 0)  -->
<!DOCTYPE svg PUBLIC "-//W3C//DTD SVG 1.1//EN" "http://www.w3.org/Graphics/SVG/1.1/DTD/svg11.dtd">
<svg version="1.1" id="Layer_1" xmlns="http://www.w3.org/2000/svg" xmlns:xlink="http://www.w3.org/1999/xlink" x="0px" y="0px"
	 width="440px" height="440px" viewBox="0 0 440 440" enable-background="new 0 0 440 440" xml:space="preserve">
<path fill="#FFFFFF" d="M440,83.57c-16.188,7.181-33.574,12.033-51.84,14.209c18.641-11.165,32.948-28.847,39.699-49.923
	c-17.459,10.341-36.762,17.844-57.337,21.899c-16.456-17.539-39.932-28.498-65.896-28.498c-49.853,0-90.268,40.397-90.268,90.249
	c0,7.073,0.788,13.949,2.346,20.565c-75.028-3.769-141.551-39.699-186.085-94.305c-7.771,13.34-12.212,28.838-12.212,45.375
	c0,31.31,15.937,58.939,40.146,75.127c-14.791-0.475-28.704-4.539-40.881-11.29c0,0.376,0,0.752,0,1.137
	c0,43.719,31.104,80.195,72.414,88.486c-7.574,2.076-15.561,3.169-23.798,3.169c-5.802,0-11.46-0.556-16.976-1.611
	c11.479,35.849,44.82,61.938,84.322,62.673c-30.889,24.209-69.817,38.624-112.113,38.624c-7.288,0-14.468-0.43-21.523-1.253
	c39.949,25.605,87.402,40.54,138.382,40.54c166.048,0,256.852-137.522,256.852-256.771c0-3.921-0.089-7.807-0.269-11.684
	C412.604,117.565,427.913,101.673,440,83.57z"/>
</svg>
